<svg width="24" height="25" viewBox="0 0 24 25" fill="none" xmlns="http://www.w3.org/2000/svg">
<g clip-path="url(#clip0_22_2229)">
<path d="M23.5405 10.769H12.1151V10.6311C12.1151 10.6224 12.1147 10.6136 12.1147 10.6047H12.1149C12.1472 9.02653 12.755 7.53839 13.831 6.39088C13.9724 6.40563 14.1131 6.41373 14.2528 6.41373C16.2038 6.41373 17.9326 5.00338 18.2672 3.01674C18.2968 2.84093 18.2189 2.65823 18.0544 2.55938C18.007 2.53094 17.9537 2.51327 17.8992 2.50412C16.8274 2.32455 15.7499 2.57265 14.8645 3.20279C14.0098 3.81112 13.434 4.70567 13.2318 5.73069C12.5506 6.443 12.0301 7.27372 11.69 8.17532C11.3667 7.27571 10.199 5.71062 10.1978 5.7033C9.7239 2.88919 7.0489 0.985403 4.23463 1.45934C4.11842 1.47894 4.01475 1.54387 3.94643 1.63984C3.87805 1.73588 3.85066 1.85512 3.87026 1.97127C4.09986 3.33452 4.84662 4.52673 5.9729 5.32832C6.85908 5.95898 7.89671 6.28848 8.96287 6.28848C9.13643 6.28848 9.31077 6.27865 9.48532 6.26108C10.6093 7.44633 11.2264 8.99135 11.2264 10.6312V10.7691H0.459578C0.222925 10.7691 0.0162787 10.9477 0.000961862 11.1838C-0.0158187 11.4427 0.189155 11.6578 0.444366 11.6578H11.2264C11.2264 11.9341 11.1774 12.208 11.0818 12.4673C10.9333 12.87 10.6976 13.5005 10.5085 13.9689C10.3422 14.3806 10.0322 14.7179 9.63451 14.9154C8.85477 15.3026 7.49235 15.695 6.05116 14.7943C5.83594 14.6597 5.54942 14.7321 5.42563 14.9582C5.31156 15.1665 5.39076 15.4303 5.59249 15.5556C6.31949 16.007 7.10258 16.2349 7.90643 16.2349C8.23969 16.2349 8.57661 16.1954 8.91441 16.1166C8.42103 16.5253 7.85954 16.857 7.24624 17.0937C6.12858 17.5251 5.16163 18.2324 4.42052 19.1288C3.65713 19.2175 0.99023 19.6687 0.568939 21.6698C0.518336 21.9099 0.672079 22.1456 0.912182 22.1962C0.943025 22.2027 0.973868 22.2058 1.00419 22.2058C1.20984 22.2058 1.39448 22.0621 1.43855 21.8529C1.57713 21.1947 2.14119 20.6846 3.11514 20.3367C3.32163 20.2629 3.52608 20.2046 3.71584 20.1586C3.41092 20.7046 3.17834 21.296 3.02988 21.9196L2.76824 23.0184C2.71136 23.2571 2.85878 23.4967 3.09757 23.5535C3.13218 23.5618 3.16679 23.5657 3.20087 23.5657C3.40192 23.5657 3.58416 23.4283 3.63277 23.2242L3.89441 22.1254C4.27331 20.5342 5.28088 19.1834 6.66268 18.3624C6.51882 19.1911 6.57512 20.411 7.55247 21.7141C7.63977 21.8306 7.77318 21.8919 7.90831 21.8919C8.00988 21.8919 8.11245 21.8572 8.19693 21.785C8.3756 21.6325 8.39756 21.3606 8.25699 21.1723C7.10776 19.6328 7.54787 18.2733 7.72995 17.857C9.07296 17.2991 10.1885 16.3411 10.9395 15.1262L10.7827 16.0981C10.6786 16.7435 10.8869 17.4112 11.3708 17.8507C11.5981 18.0571 11.7207 18.3519 11.7071 18.6585C11.6935 18.9635 11.5466 19.2448 11.3041 19.4303L10.0465 20.392C9.8605 20.5342 9.80394 20.7977 9.93113 20.9944C10.0175 21.1279 10.1604 21.1982 10.3051 21.1982C10.3993 21.1982 10.4941 21.1684 10.5747 21.1068L11.3307 20.5287C11.4184 21.0145 11.4216 21.7298 10.9172 22.3364C10.763 22.5218 10.7676 22.8004 10.9453 22.9633C11.0311 23.0419 11.1387 23.0803 11.2457 23.0803C11.3719 23.0803 11.4973 23.0268 11.5852 22.9228C12.5202 21.8167 12.2729 20.4986 12.0914 19.9098C12.3945 19.5802 12.5746 19.1535 12.5949 18.6981C12.6202 18.1285 12.3933 17.5809 11.9722 17.1964C11.7173 16.9637 11.5992 16.6168 11.6541 16.2761L11.9274 14.5825L12.5347 16.6545C12.661 17.0852 12.909 17.448 13.2302 17.7168C13.4614 17.9984 14.8041 19.7275 14.0335 20.9889C13.915 21.1828 13.9434 21.4384 14.1196 21.5818C14.2039 21.6503 14.3033 21.6827 14.4013 21.6827C14.5494 21.6827 14.6942 21.6087 14.7785 21.4738C15.2895 20.6562 15.2839 19.627 14.7622 18.4974C14.7197 18.4055 14.6754 18.3168 14.6304 18.2313C14.8361 18.2324 15.0452 18.2049 15.2525 18.1447C15.9077 17.9544 16.606 18.307 16.8419 18.9474C17.1676 19.8317 17.7107 20.6113 18.4033 21.2231C18.3735 21.3359 18.3459 21.4732 18.3307 21.6319C18.2759 22.2037 18.4036 22.8062 18.6999 23.3742C18.7792 23.5262 18.934 23.6131 19.0942 23.6131C19.1717 23.6131 19.2503 23.5928 19.3223 23.5498C19.5262 23.4282 19.5897 23.1608 19.4809 22.9497C19.2476 22.4969 19.196 22.1059 19.2077 21.8161C19.6183 22.0664 20.0625 22.2656 20.5311 22.4045L20.8576 22.5013C20.8997 22.5138 20.9422 22.5197 20.984 22.5197C21.1832 22.5197 21.3666 22.3845 21.4161 22.1782C21.4718 21.9459 21.3238 21.7125 21.0948 21.6447L20.7836 21.5524C19.5001 21.1721 18.4329 20.2564 17.8546 19.0609C17.8967 19.0704 17.9392 19.0795 17.9828 19.0879C18.2049 19.1302 18.4238 19.1512 18.6386 19.1512C19.42 19.1512 20.1463 18.8728 20.7668 18.3299C20.9514 18.1683 20.9702 17.8876 20.8085 17.7029C20.647 17.5182 20.3663 17.4995 20.1815 17.6611C18.793 18.8761 17.2281 17.8836 17.1576 17.8377C17.1566 17.8371 17.1558 17.8369 17.1549 17.8364C16.6043 17.2974 15.7866 17.0644 15.0047 17.2913C14.315 17.4916 13.5895 17.0938 13.3876 16.4046L13.3426 16.2512C13.5731 16.3328 13.8148 16.3742 14.0567 16.3742C14.3322 16.3742 14.608 16.321 14.8679 16.2145C15.0895 16.1235 15.21 15.8722 15.128 15.6471C15.0405 15.4072 14.7719 15.2914 14.5388 15.3889C14.2066 15.5279 13.8445 15.5191 13.5192 15.3642C13.1941 15.2092 12.9592 14.9335 12.858 14.5882L12.2297 12.4524C12.1538 12.1944 12.1152 11.9267 12.1152 11.6578H23.5559C23.8111 11.6578 24.016 11.4427 23.9993 11.1838C23.9838 10.9476 23.7771 10.769 23.5405 10.769ZM15.3798 3.92686C15.9405 3.52779 16.5985 3.32459 17.2755 3.33656C16.842 4.65532 15.5895 5.54741 14.2012 5.52452C14.4113 4.88231 14.8191 4.32593 15.3798 3.92686ZM6.48819 4.6043C5.68408 4.03204 5.11359 3.21941 4.84955 2.28289C6.84826 2.1671 8.67316 3.46662 9.21824 5.3921C8.24758 5.44955 7.29224 5.17657 6.48819 4.6043Z" fill="black"/>
</g>
<defs>
<clipPath id="clip0_22_2229">
<rect width="24" height="24" fill="white" transform="translate(0 0.5)"/>
</clipPath>
</defs>
</svg>
